<svg width="196" height="72" viewBox="0 0 196 72" fill="none" xmlns="http://www.w3.org/2000/svg">
<path d="M22.68 9.91799C22.68 9.91799 25.032 11.822 26.404 13.11C26.32 13.418 25.984 13.558 25.592 13.558H0.616L0.392 12.774H20.608L22.68 9.91799ZM10.164 8.65799C18.676 8.34999 15.288 15.014 11.704 12.578C11.564 11.178 10.808 9.69399 9.996 8.79799L10.164 8.65799ZM19.432 22.574L21.672 20.586L25.116 23.862C24.864 24.114 24.584 24.198 23.94 24.226C20.944 25.066 15.988 25.794 12.712 26.102L12.572 25.906C14.896 25.066 18.144 23.61 19.768 22.574H19.432ZM16.184 25.038C16.128 25.458 15.848 25.682 15.288 25.766V30.89C15.288 33.606 14.588 35.006 9.912 35.37C9.8 34.11 9.632 33.242 9.072 32.626C8.54 32.066 7.924 31.646 6.188 31.338V31.002C6.188 31.002 9.828 31.226 10.472 31.226C10.836 31.226 10.976 31.114 10.976 30.778V24.646L16.184 25.038ZM17.164 15.518L18.928 13.558L22.708 16.358C22.54 16.582 22.204 16.834 21.616 16.974V20.614C21.588 20.81 19.46 21.426 18.172 21.426H17.444V15.518H17.164ZM9.072 20.81C9.072 21.146 7.224 22.014 5.572 22.014H5.012V13.922L9.296 15.518H18.984V16.302H9.072V20.81ZM19.376 19.494V20.278H7.28V19.494H19.376ZM21.28 22.574V23.358H2.744L2.492 22.574H21.28ZM22.96 24.87C22.96 24.87 25.312 26.718 26.712 27.95C26.656 28.258 26.32 28.398 25.9 28.398H0.224L0 27.614H20.888L22.96 24.87Z" fill="white"/>
<path d="M82.964 14.706C82.768 15.014 82.208 15.238 81.312 14.818L82.18 14.678C80.752 16.722 77.588 19.886 75.096 21.426L75.068 21.09H76.524C76.412 22.742 75.908 23.666 75.264 23.946L73.836 20.698C73.836 20.698 74.424 20.53 74.676 20.362C76.328 18.934 78.596 14.734 79.268 12.466L82.964 14.706ZM81.396 10.366C81.256 10.702 80.752 10.982 79.8 10.646L80.724 10.506C79.408 12.13 76.972 14.342 75.096 15.322V15.014H76.608C76.496 16.694 75.992 17.618 75.348 17.898L73.892 14.594C73.892 14.594 74.368 14.482 74.62 14.314C75.628 13.362 76.916 10.198 77.224 8.57399L81.396 10.366ZM65.38 14.706C65.184 15.042 64.624 15.238 63.728 14.846L64.596 14.706C63.112 16.75 59.808 19.914 57.232 21.454L57.204 21.118H58.632C58.52 22.77 58.016 23.694 57.372 23.974L55.944 20.726C55.944 20.726 56.56 20.558 56.812 20.39C58.548 18.962 60.984 14.762 61.712 12.466L65.38 14.706ZM63.532 10.394C63.392 10.73 62.888 11.01 61.908 10.674L62.832 10.534C61.544 12.158 59.136 14.342 57.316 15.378L57.288 15.042H58.772C58.66 16.694 58.156 17.59 57.54 17.898L56.112 14.65C56.112 14.65 56.588 14.51 56.84 14.342C57.848 13.39 59.108 10.254 59.416 8.62999L63.532 10.394ZM67.9 29.406C67.676 29.742 67.312 29.854 66.584 29.742C63.616 32.262 59.108 33.55 55.804 33.914L55.692 33.634C58.296 32.178 61.348 29.434 63.42 26.41L67.9 29.406ZM72.352 28.006C84.252 26.494 83.552 35.398 79.044 33.718C77.56 31.926 74.9 29.63 72.24 28.258L72.352 28.006ZM74.564 20.614C75.628 20.586 78.12 20.446 80.556 20.25L80.584 20.586C79.632 21.174 77.504 22.406 75.376 23.498L74.564 20.614ZM74.368 14.706C75.432 14.678 77.868 14.538 80.192 14.37L80.22 14.706C79.38 15.294 77.392 16.498 75.376 17.59L74.368 14.706ZM79.492 17.73C85.008 20.726 81.928 25.01 79.856 22.714C79.968 21.09 79.604 19.186 79.156 17.842L79.492 17.73ZM56.616 20.698C57.764 20.67 60.48 20.502 63.168 20.306L63.196 20.642C62.104 21.258 59.808 22.49 57.428 23.582L56.616 20.698ZM56.616 14.734C57.68 14.706 60.116 14.566 62.44 14.398L62.468 14.734C61.628 15.322 59.64 16.526 57.624 17.618L56.616 14.734ZM72.688 23.526C72.632 23.89 72.436 24.198 71.652 24.31V34.418C71.652 34.698 69.776 35.37 68.068 35.37H67.34V23.078L72.688 23.526ZM78.792 23.05C78.792 23.05 81.144 24.814 82.572 26.018C82.488 26.326 82.18 26.466 81.76 26.466H56.336L56.112 25.682H76.72L78.792 23.05ZM61.572 17.786C66.948 20.698 63.952 25.01 61.936 22.77C62.16 21.146 61.768 19.214 61.236 17.898L61.572 17.786ZM72.044 9.07799C71.96 9.55399 71.624 9.80599 71.008 9.86199C70.392 10.73 69.272 11.99 68.6 12.802H67.844C67.9 11.71 67.9 9.83399 67.872 8.57399L72.044 9.07799ZM70.028 12.382L71.456 10.87L74.368 13.082C74.228 13.25 73.948 13.418 73.528 13.53V21.902C73.5 22.098 71.904 22.742 70.812 22.742H70.252V12.382H70.028ZM68.292 22.294C68.292 22.602 66.948 23.274 65.632 23.274H65.184V11.094L68.404 12.382H72.184V13.166H68.292V22.294ZM71.932 20.614V21.398H66.528V20.614H71.932ZM71.932 16.442V17.226H66.528V16.442H71.932Z" fill="white"/>
<path d="M128.268 16.47H124.768V11.29H128.268V16.47ZM132.804 11.29V16.47H129.36V11.29H132.804ZM130.368 26.018C130.368 26.018 132.076 27.418 133.084 28.398C133 28.706 132.72 28.846 132.328 28.846H124.992L124.768 28.062H128.884L130.368 26.018ZM113.904 26.634C114.352 26.634 114.464 26.634 114.772 26.046C115.388 24.926 115.388 24.926 120.4 12.662L120.82 12.746C119.868 16.414 118.244 23.106 117.936 24.814C117.712 25.85 117.544 26.942 117.544 27.698C117.628 29.35 118.916 30.218 118.86 32.85C118.804 34.362 117.712 35.398 116.144 35.398C115.444 35.398 114.604 35.062 114.324 33.942C114.912 30.974 114.8 28.09 114.128 27.614C113.736 27.334 113.232 27.194 112.644 27.138V26.634C112.644 26.634 113.596 26.634 113.904 26.634ZM112.14 15.574C120.428 16.078 117.432 22.406 114.072 20.138C113.764 18.542 112.812 16.834 111.944 15.714L112.14 15.574ZM114.436 9.10599C122.808 9.88999 119.7 16.19 116.34 13.866C116.032 12.214 115.08 10.45 114.212 9.24599L114.436 9.10599ZM120.764 14.566L124.628 15.994H133.252L135.072 13.922L138.292 16.498C138.096 16.778 137.76 17.002 137.116 17.114V34.194C137.116 34.39 135.912 35.174 134.036 35.174H133.42V16.778H124.292V34.418C124.292 34.67 123.2 35.342 121.408 35.342H120.764V14.566ZM128.268 19.354C128.268 21.482 127.876 24.478 124.236 26.242L123.984 25.934C125.412 23.974 125.412 21.454 125.412 19.354V16.414H128.268V19.354ZM132.188 16.414C132.188 16.722 132.188 17.058 132.188 17.282V21.93C132.188 22.238 132.244 22.35 132.552 22.35H133.112C133.28 22.35 133.504 22.322 133.644 22.322C133.784 22.322 134.064 22.322 134.176 22.294C134.344 22.294 134.596 22.238 134.792 22.182H135.044L135.156 22.238C135.856 22.518 136.08 22.826 136.08 23.358C136.08 24.422 135.212 24.842 132.72 24.842H131.572C129.612 24.842 129.388 24.254 129.388 22.574V16.414H132.188ZM135.436 31.87V32.654H122.92V31.87H135.436ZM135.38 8.54599C135.38 8.54599 137.452 10.142 138.712 11.262C138.628 11.57 138.32 11.71 137.928 11.71H120.092L119.868 10.926H133.56L135.38 8.54599Z" fill="white"/>
<path d="M179.256 8.74199C188.496 8.88199 185.248 16.078 181.44 13.586C181.132 11.85 180.096 10.058 179.088 8.88199L179.256 8.74199ZM170.464 12.158L175.112 13.726H174.524V20.838C174.524 25.514 174.188 31.618 168.168 35.454L167.944 35.286C170.352 31.058 170.464 25.654 170.464 20.838V12.158ZM191.24 11.066C191.24 11.066 193.424 12.858 194.684 14.062C194.6 14.37 194.292 14.51 193.9 14.51H172.368V13.726H189.308L191.24 11.066ZM190.064 16.694C190.064 16.694 192.388 18.598 193.732 19.858C193.648 20.166 193.34 20.306 192.92 20.306H183.372V19.522H188.02L190.064 16.694ZM186.368 15.238C186.312 15.63 186.144 15.91 185.36 16.05V25.598H181.3V14.846L186.368 15.238ZM189.14 31.702V32.486H176.904V31.702H189.14ZM175.448 23.47L179.508 24.982H187.32L189.14 22.938L192.5 25.486C192.332 25.738 192.052 25.906 191.408 26.046V34.362C191.408 34.53 190.204 35.174 188.16 35.174H187.46V25.766H179.228V34.558C179.228 34.782 178.08 35.398 176.148 35.398H175.448V23.47Z" fill="white"/>
<path d="M0.311276 58.1494C0.103759 58.1494 0 58.0478 0 57.8447C0 57.7491 0.0345862 57.6237 0.103759 57.4683C0.18446 57.3011 0.253632 57.1517 0.311276 57.0203C0.657138 56.2676 1.11252 55.3775 1.67743 54.3501C2.25387 53.3226 2.93983 52.1637 3.73531 50.8734C3.42403 50.8734 3.2684 50.7778 3.2684 50.5866C3.2684 50.3835 3.37792 50.282 3.59697 50.282L4.11576 50.2999C4.47315 49.7384 4.77866 49.2664 5.03229 48.8841C5.28592 48.5018 5.48768 48.2031 5.63755 47.9881C5.89118 47.6416 6.16211 47.2951 6.45033 46.9486C6.75007 46.5902 7.07864 46.2437 7.43603 45.9092C7.97788 45.7897 8.53126 45.7061 9.09617 45.6583C9.67261 45.5986 10.2548 45.5687 10.8428 45.5687C11.8804 45.5687 12.6067 45.6225 13.0217 45.73C13.1716 45.7658 13.2696 45.8077 13.3157 45.8554C13.3733 45.9032 13.4022 45.9689 13.4022 46.0526C13.4022 46.2557 13.3157 46.3572 13.1428 46.3572C13.0044 46.3572 12.7393 46.3274 12.3473 46.2676C11.9553 46.1959 11.3558 46.1601 10.5488 46.1601C10.1568 46.1601 9.72449 46.184 9.25181 46.2318C8.77913 46.2796 8.26034 46.3513 7.69543 46.4468C7.21122 46.8292 6.23705 48.1135 4.7729 50.2999H9.00971C9.19417 50.2999 9.2864 50.3955 9.2864 50.5866C9.2864 50.7778 9.19417 50.8734 9.00971 50.8734H4.40974C2.73807 53.5257 1.51026 55.7121 0.72631 57.4325C3.83907 56.7157 6.19093 56.3572 7.7819 56.3572C8.88865 56.3572 9.44203 56.632 9.44203 57.1816C9.44203 57.3728 9.3498 57.4683 9.16534 57.4683C9.01547 57.4683 8.93477 57.4086 8.92324 57.2891C8.91171 57.1577 8.80795 57.0741 8.61197 57.0382C8.4275 56.9904 8.13352 56.9666 7.73002 56.9666C7.22275 56.9666 6.65208 57.0084 6.018 57.092C5.39545 57.1637 4.72678 57.2593 4.012 57.3787C2.99747 57.5341 2.17317 57.7013 1.53909 57.8805C0.905006 58.0597 0.495736 58.1494 0.311276 58.1494Z" fill="white"/>
<path d="M12.7342 57.9343C12.5497 57.9343 12.4575 57.8566 12.4575 57.7013C12.4575 57.6416 12.4806 57.5699 12.5267 57.4863C12.5728 57.3907 12.6132 57.313 12.6477 57.2533L14.2041 54.0096C14.8728 52.5998 15.2071 51.8172 15.2071 51.6619C15.2071 51.4946 15.2878 51.411 15.4492 51.411C15.6683 51.411 15.7778 51.5305 15.7778 51.7694C15.7778 51.8531 15.7259 52.0323 15.6222 52.3071C15.5184 52.5818 15.3858 52.8925 15.2244 53.239C14.9477 53.8602 14.7171 54.3381 14.5327 54.6726C14.8786 54.2545 15.2302 53.8602 15.5876 53.4899C15.945 53.1195 16.3081 52.767 16.677 52.4325C17.7723 51.4409 18.6139 50.945 19.2018 50.945C19.6053 50.945 19.8071 51.1422 19.8071 51.5364C19.8071 51.8949 19.5131 52.7013 18.9251 53.9558C18.3372 55.2222 18.0432 56.0227 18.0432 56.3572C18.0432 56.5126 18.0951 56.5902 18.1988 56.5902C18.2334 56.5902 18.2853 56.5783 18.3545 56.5544C18.4352 56.5185 18.5159 56.5006 18.5966 56.5006C18.7926 56.5006 18.8906 56.5962 18.8906 56.7873C18.8906 57.0263 18.6427 57.1458 18.1469 57.1458C17.9164 57.1458 17.7492 57.092 17.6454 56.9845C17.5417 56.865 17.4898 56.7097 17.4898 56.5185C17.4898 55.945 17.7723 55.0729 18.3372 53.902C18.9021 52.7431 19.1845 52.0442 19.1845 51.8053C19.1845 51.6619 19.1327 51.5902 19.0289 51.5902C18.7753 51.5902 18.366 51.8112 17.8011 52.2533C17.1901 52.7312 16.579 53.2808 15.968 53.902C15.357 54.5233 14.7748 55.2342 14.2214 56.0347L13.0109 57.773C12.9417 57.8805 12.8495 57.9343 12.7342 57.9343Z" fill="white"/>
<path d="M24.8473 50.4253C24.6514 50.4253 24.5534 50.3238 24.5534 50.1207C24.5534 50.0609 24.5937 49.9534 24.6744 49.7981C24.7551 49.6308 24.8473 49.4636 24.9511 49.2963C25.0549 49.129 25.1356 49.0155 25.1932 48.9558C25.3892 48.7288 25.5391 48.5854 25.6428 48.5257C25.7581 48.466 25.8619 48.4361 25.9541 48.4361C26.1962 48.4361 26.3173 48.5496 26.3173 48.7766C26.3173 48.8602 26.2654 48.9618 26.1616 49.0813C26.0694 49.1888 25.9599 49.2903 25.8331 49.3859C25.6486 49.5054 25.5333 49.601 25.4872 49.6726L25.1067 50.2282C25.0952 50.276 25.0664 50.3238 25.0203 50.3716C24.9857 50.4074 24.928 50.4253 24.8473 50.4253ZM18.7429 63.454C18.4316 63.454 18.178 63.3405 17.982 63.1135C17.7745 62.8985 17.6246 62.6296 17.5324 62.3071C17.4286 61.9964 17.3767 61.6977 17.3767 61.411C17.3767 61.0645 17.4113 60.7479 17.4805 60.4612C17.5727 60.043 17.7226 59.8339 17.9301 59.8339C18.1146 59.8339 18.2068 59.9235 18.2068 60.1028C18.2068 60.1505 18.1837 60.2163 18.1376 60.2999C18.0915 60.3835 18.0569 60.4552 18.0339 60.5149C17.9647 60.7061 17.9301 60.951 17.9301 61.2497C17.9301 61.6201 17.9993 61.9725 18.1376 62.3071C18.276 62.6535 18.495 62.8268 18.7948 62.8268C19.0253 62.8268 19.2559 62.7312 19.4865 62.54C19.7171 62.3489 19.9419 62.104 20.1609 61.8053C20.3684 61.5185 20.5644 61.2139 20.7489 60.8913C20.9218 60.5687 21.0659 60.27 21.1812 59.9952C21.3426 59.6249 21.504 59.2246 21.6654 58.7945C21.8268 58.3644 21.9709 57.9522 22.0977 57.558C22.2361 57.1637 22.3283 56.8471 22.3744 56.6081C22.4667 56.1302 22.5589 55.6583 22.6511 55.1924C22.7549 54.7145 22.8586 54.2366 22.9624 53.7587C23.1584 52.9104 23.3544 52.319 23.5504 51.9845C23.7464 51.6499 23.925 51.4827 24.0865 51.4827C24.1672 51.4827 24.2594 51.5185 24.3631 51.5902C24.4784 51.6619 24.5361 51.7455 24.5361 51.8411C24.5361 51.8889 24.4208 52.1159 24.1902 52.5221C24.0634 52.7491 23.9654 52.9283 23.8962 53.0597C23.8271 53.1912 23.7809 53.2808 23.7579 53.3286C23.7233 53.4122 23.6714 53.5914 23.6022 53.8662C23.5331 54.141 23.4524 54.4695 23.3601 54.8519C23.2794 55.2222 23.193 55.6045 23.1007 55.9988C23.0085 56.3931 22.9221 56.7575 22.8413 57.092C22.7722 57.4146 22.7088 57.6655 22.6511 57.8447C22.4667 58.466 22.2476 59.0753 21.994 59.6726C21.7404 60.27 21.4694 60.8136 21.1812 61.3035C20.3396 62.7372 19.5268 63.454 18.7429 63.454Z" fill="white"/>
<path d="M28.1626 57.3967C27.2288 57.3967 26.7619 56.8531 26.7619 55.7658C26.7619 55.264 26.8772 54.7384 27.1077 54.1888C27.3383 53.6392 27.6438 53.1314 28.0243 52.6655C28.4047 52.1876 28.8255 51.7993 29.2867 51.5006C29.7594 51.2019 30.2378 51.0526 30.722 51.0526C31.1486 51.0526 31.4598 51.2198 31.6558 51.5544C31.8518 51.8889 31.9498 52.2593 31.9498 52.6655C31.9498 53.2031 31.8461 53.7527 31.6385 54.3142C31.431 54.8638 31.1486 55.3716 30.7912 55.8375C30.4338 56.3035 30.0303 56.6798 29.5807 56.9666C29.131 57.2533 28.6584 57.3967 28.1626 57.3967ZM28.1453 56.8232C28.2145 56.8232 28.2549 56.8172 28.2664 56.8053C28.716 56.7455 29.131 56.5783 29.5115 56.3035C29.8919 56.0287 30.2205 55.6882 30.4972 55.282C30.7854 54.8638 31.0045 54.4158 31.1543 53.9379C31.3042 53.46 31.3791 52.9881 31.3791 52.5221C31.3791 52.2473 31.3042 52.0323 31.1543 51.8769C31.0045 51.7216 30.8142 51.644 30.5837 51.644C30.2493 51.644 29.8919 51.7873 29.5115 52.0741C29.1426 52.3608 28.7909 52.7252 28.4566 53.1673C28.1338 53.6093 27.8686 54.0753 27.6611 54.5651C27.4536 55.043 27.3498 55.4731 27.3498 55.8554C27.3498 56.5006 27.615 56.8232 28.1453 56.8232Z" fill="white"/>
<path d="M34.0078 63.4182C33.3046 63.4182 32.9529 62.9881 32.9529 62.1278C32.9529 61.3991 33.1028 60.6942 33.4026 60.0132C33.4487 59.8937 33.5236 59.8339 33.6274 59.8339C33.8349 59.8339 33.9387 59.9295 33.9387 60.1207C33.9387 60.1685 33.9214 60.2282 33.8868 60.2999C33.8637 60.3835 33.8349 60.4731 33.8003 60.5687C33.7196 60.7957 33.6562 61.0347 33.6101 61.2856C33.564 61.5364 33.5409 61.7993 33.5409 62.0741C33.5409 62.3847 33.5813 62.5938 33.662 62.7013C33.7427 62.8088 33.8464 62.8626 33.9732 62.8626C34.273 62.8626 34.6246 62.7192 35.0281 62.4325C35.4432 62.1458 35.8697 61.6918 36.3078 61.0705C36.6191 60.6284 36.9419 60.1028 37.2762 59.4934C37.6106 58.8841 37.9679 58.1852 38.3484 57.3967C38.8557 56.3572 39.3226 55.2999 39.7491 54.2246C39.4609 54.6069 39.1612 54.9773 38.8499 55.3357C38.5386 55.6942 38.2043 56.0287 37.8469 56.3393C36.89 57.1876 36.0945 57.6117 35.4604 57.6117C34.6996 57.6117 34.3191 57.1577 34.3191 56.2497C34.3191 55.9271 34.3767 55.5388 34.492 55.0848C34.6189 54.6308 34.7918 54.1111 35.0108 53.5257C35.0454 53.4301 35.0627 53.3525 35.0627 53.2927C35.0627 53.221 35.08 53.1494 35.1146 53.0777C35.299 52.6595 35.6046 52.1936 36.0311 51.6798C36.1234 51.5723 36.2041 51.5185 36.2732 51.5185C36.4462 51.5185 36.5326 51.6499 36.5326 51.9128C35.4143 53.6213 34.8552 55.0669 34.8552 56.2497C34.8552 56.7515 35.0454 57.0024 35.4259 57.0024C35.8524 57.0024 36.4462 56.6977 37.2071 56.0884C37.7489 55.6583 38.2504 55.1744 38.7116 54.6368C39.1727 54.0872 39.5877 53.5197 39.9567 52.9343C40.2103 52.54 40.412 52.1936 40.5619 51.8949C40.7233 51.5842 40.8213 51.3752 40.8559 51.2676C40.9135 51.0884 40.9942 50.9988 41.098 50.9988C41.317 50.9988 41.4266 51.0944 41.4266 51.2856C41.4266 51.3811 41.3805 51.5544 41.2882 51.8053C41.2075 52.0442 41.1038 52.331 40.9769 52.6655C40.7925 53.1553 40.5273 53.8124 40.1815 54.6368C39.8356 55.4612 39.4033 56.4409 38.8845 57.5759C38.2389 58.9857 37.6048 60.1386 36.9822 61.0347C36.5211 61.7157 36.0138 62.2832 35.4604 62.7372C34.9186 63.1912 34.4344 63.4182 34.0078 63.4182Z" fill="white"/>
<path d="M42.653 58.0956C42.457 58.0956 42.359 58 42.359 57.8088C42.359 57.7969 42.4282 57.6476 42.5666 57.3608C42.7049 57.0741 42.9009 56.6499 43.1545 56.0884L44.0365 54.1709C44.3939 53.3943 44.6475 52.779 44.7974 52.325C44.9588 51.871 45.0395 51.5783 45.0395 51.4468C45.0395 51.2557 45.1317 51.1601 45.3162 51.1601C45.5006 51.1601 45.5929 51.2557 45.5929 51.4468C45.5929 51.6022 45.541 51.8471 45.4372 52.1816C45.345 52.5042 45.1894 52.9223 44.9703 53.4361L44.0884 55.5149C46.4979 52.3608 48.3136 50.7838 49.5357 50.7838C49.7663 50.7838 49.945 50.8853 50.0718 51.0884C50.1986 51.2796 50.262 51.4946 50.262 51.7336C50.262 52.3071 49.8643 53.3047 49.0688 54.7264C49.6798 54.0813 50.2966 53.4361 50.9191 52.7909C51.5532 52.1338 52.1873 51.4887 52.8214 50.8554C52.9828 50.7001 53.1154 50.6225 53.2191 50.6225C53.3575 50.6225 53.4727 50.6942 53.565 50.8375C53.6572 50.9689 53.7033 51.1123 53.7033 51.2676C53.7033 51.3871 53.6514 51.5364 53.5477 51.7157C53.3978 51.9785 53.2595 52.2951 53.1326 52.6655C53.0058 53.0239 52.8617 53.4301 52.7003 53.8841C52.5159 54.3979 52.3833 54.8459 52.3026 55.2282C52.2219 55.6105 52.1815 55.9212 52.1815 56.1601C52.1815 56.4588 52.2507 56.6798 52.389 56.8232C52.5274 56.9546 52.6657 57.0203 52.8041 57.0203C53.0462 57.0203 53.3113 56.9546 53.5996 56.8232C53.8878 56.6918 54.1241 56.5603 54.3086 56.4289C54.6775 56.178 55.0637 55.8674 55.4672 55.497C55.8707 55.1147 56.2569 54.7324 56.6259 54.3501C56.672 54.3023 56.7411 54.2784 56.8334 54.2784C57.0063 54.2784 57.0928 54.3501 57.0928 54.4934C57.0928 54.6249 57.0121 54.7742 56.8507 54.9415C56.3895 55.4194 55.9745 55.8315 55.6056 56.178C55.2366 56.5126 54.885 56.7873 54.5507 57.0024C54.3316 57.1338 54.0665 57.2712 53.7552 57.4146C53.4439 57.558 53.1096 57.6296 52.7522 57.6296C52.4179 57.6296 52.1354 57.5221 51.9048 57.3071C51.6858 57.092 51.5763 56.632 51.5763 55.9271C51.5763 55.6523 51.6224 55.3298 51.7146 54.9594C51.8068 54.5771 51.9452 54.1529 52.1296 53.687L53.0462 51.4289L50.5733 54.0096C50.285 54.3083 50.0487 54.5591 49.8643 54.7623C49.6798 54.9654 49.5299 55.1326 49.4146 55.264C49.1956 55.503 48.9996 55.736 48.8267 55.963C48.6653 56.19 48.5269 56.3871 48.4116 56.5544C48.3309 56.6858 48.2387 56.7515 48.1349 56.7515C47.9389 56.7515 47.841 56.6679 47.841 56.5006C47.841 56.1302 48.1638 55.276 48.8094 53.9379C49.455 52.5998 49.7778 51.7993 49.7778 51.5364C49.7778 51.417 49.651 51.3572 49.3973 51.3572C48.3713 51.3572 46.544 53.0956 43.9154 56.5723C43.6964 56.8949 43.3332 57.3787 42.826 58.0239C42.7914 58.0717 42.7337 58.0956 42.653 58.0956Z" fill="white"/>
<path d="M59.5174 57.8088C59.0332 57.8088 58.6528 57.6356 58.3761 57.2891C58.0994 56.9427 57.9611 56.5185 57.9611 56.0167C57.9611 55.1565 58.2378 54.2724 58.7911 53.3644C58.941 53.1135 59.1139 52.8686 59.3099 52.6296C59.5059 52.3787 59.7192 52.1398 59.9498 51.9128C60.2956 51.5663 60.6588 51.2796 61.0392 51.0526C61.4197 50.8256 61.7886 50.7121 62.146 50.7121C62.734 50.7121 63.028 50.9988 63.028 51.5723C63.028 52.2891 62.6244 52.9403 61.8174 53.5257C61.0681 54.0514 60.3302 54.3142 59.6039 54.3142C59.4771 54.3142 59.3618 54.3083 59.258 54.2963C59.1658 54.2724 59.0794 54.2485 58.9987 54.2246C58.8834 54.4516 58.7796 54.7443 58.6874 55.1028C58.5951 55.4612 58.549 55.7718 58.549 56.0347C58.549 56.8232 58.8834 57.2175 59.552 57.2175C60.0939 57.2175 60.6069 57.1219 61.0911 56.9307C61.5753 56.7276 62.1518 56.3513 62.8204 55.8017C63.2355 55.4672 63.5467 55.1983 63.7543 54.9952C63.9618 54.7921 64.1866 54.5771 64.4287 54.3501C64.4979 54.3023 64.5613 54.2784 64.6189 54.2784C64.6766 54.2784 64.7342 54.2963 64.7918 54.3321C64.8495 54.368 64.8783 54.4218 64.8783 54.4934C64.8783 54.6249 64.763 54.81 64.5324 55.049C64.3365 55.2402 64.1289 55.4433 63.9099 55.6583C63.6909 55.8614 63.345 56.1482 62.8723 56.5185C62.365 56.9247 61.8117 57.2413 61.2122 57.4683C60.6127 57.6953 60.0478 57.8088 59.5174 57.8088ZM59.5002 53.7407C59.8691 53.7407 60.2207 53.681 60.555 53.5615C60.8894 53.4421 61.2064 53.2688 61.5062 53.0418C62.1748 52.5281 62.5092 52.0442 62.5092 51.5902C62.5092 51.3871 62.3881 51.2856 62.146 51.2856C61.6848 51.2856 61.1488 51.5783 60.5377 52.1637C60.238 52.4504 59.9901 52.7133 59.7941 52.9522C59.6097 53.1792 59.4367 53.4301 59.2753 53.7049C59.3445 53.7288 59.4195 53.7407 59.5002 53.7407Z" fill="white"/>
<path d="M64.9918 57.9343C64.8073 57.9343 64.7151 57.8566 64.7151 57.7013C64.7151 57.6416 64.7382 57.5699 64.7843 57.4863C64.8304 57.3907 64.8707 57.313 64.9053 57.2533L66.4617 54.0096C67.1304 52.5998 67.4647 51.8172 67.4647 51.6619C67.4647 51.4946 67.5454 51.411 67.7068 51.411C67.9258 51.411 68.0354 51.5305 68.0354 51.7694C68.0354 51.8531 67.9835 52.0323 67.8797 52.3071C67.776 52.5818 67.6434 52.8925 67.482 53.239C67.2053 53.8602 66.9747 54.3381 66.7903 54.6726C67.1361 54.2545 67.4878 53.8602 67.8452 53.4899C68.2025 53.1195 68.5657 52.767 68.9346 52.4325C70.0299 51.4409 70.8715 50.945 71.4594 50.945C71.8629 50.945 72.0647 51.1422 72.0647 51.5364C72.0647 51.8949 71.7707 52.7013 71.1827 53.9558C70.5948 55.2222 70.3008 56.0227 70.3008 56.3572C70.3008 56.5126 70.3527 56.5902 70.4564 56.5902C70.491 56.5902 70.5429 56.5783 70.6121 56.5544C70.6927 56.5185 70.7735 56.5006 70.8541 56.5006C71.0501 56.5006 71.1481 56.5962 71.1481 56.7873C71.1481 57.0263 70.9003 57.1458 70.4045 57.1458C70.174 57.1458 70.0068 57.092 69.903 56.9845C69.7993 56.865 69.7474 56.7097 69.7474 56.5185C69.7474 55.945 70.0299 55.0729 70.5948 53.902C71.1597 52.7431 71.4421 52.0442 71.4421 51.8053C71.4421 51.6619 71.3902 51.5902 71.2865 51.5902C71.0329 51.5902 70.6236 51.8112 70.0587 52.2533C69.4477 52.7312 68.8366 53.2808 68.2256 53.902C67.6146 54.5233 67.0324 55.2342 66.479 56.0347L65.2685 57.773C65.1993 57.8805 65.1071 57.9343 64.9918 57.9343Z" fill="white"/>
<path d="M74.217 58.7228C73.9979 58.7228 73.8884 58.5436 73.8884 58.1852C73.8884 57.6595 74.1709 56.7396 74.7358 55.4253C75.3122 54.1111 76.1653 52.3907 77.2952 50.264C76.8571 50.264 76.442 50.3238 76.0501 50.4433C75.6696 50.5508 75.4679 50.6882 75.4448 50.8554C75.4333 50.9032 75.4044 50.951 75.3583 50.9988C75.3237 51.0347 75.2661 51.0526 75.1854 51.0526C75.0009 51.0526 74.9087 50.957 74.9087 50.7658C74.9087 50.4552 75.1451 50.1983 75.6177 49.9952C76.0904 49.7921 76.7533 49.6906 77.6064 49.6906L78.7997 47.6476C78.8804 47.5161 78.9668 47.3728 79.0591 47.2175C79.1513 47.0502 79.2551 46.871 79.3703 46.6798C79.4856 46.5126 79.6182 46.4289 79.7681 46.4289C79.8603 46.4289 79.9295 46.4588 79.9756 46.5185C80.0217 46.5663 80.0448 46.6201 80.0448 46.6798C80.0448 46.859 79.7911 47.3369 79.2839 48.1135C78.6498 49.0813 78.3097 49.6069 78.2636 49.6906C78.4365 49.6906 78.6959 49.7085 79.0418 49.7443C79.3876 49.7682 79.7969 49.81 80.2696 49.8698C80.4425 49.8817 80.529 49.9713 80.529 50.1386C80.529 50.3298 80.4252 50.4253 80.2177 50.4253C80.137 50.4253 79.9756 50.4134 79.7335 50.3895C79.4914 50.3537 79.232 50.3238 78.9553 50.2999C78.6786 50.276 78.4423 50.27 78.2463 50.282L77.9869 50.2999C75.6466 54.5651 74.4821 57.2175 74.4937 58.2569L74.511 58.4002V58.4361C74.511 58.6272 74.413 58.7228 74.217 58.7228Z" fill="white"/>
<path d="M85.8846 58.2569C85.8039 58.2569 85.7116 58.2151 85.6079 58.1314C85.5041 58.0478 85.4522 57.9582 85.4522 57.8626C85.4522 57.7551 85.5675 57.4803 85.7981 57.0382C86.0287 56.5962 86.3976 55.9331 86.9049 55.049C87.4121 54.1649 88.075 53.0179 88.8936 51.6081L91.159 47.6834C91.2858 47.4445 91.4414 47.1637 91.6259 46.8411C91.8103 46.5185 92.0351 46.1362 92.3003 45.6942C92.3695 45.5866 92.4444 45.5329 92.5251 45.5329C92.6058 45.5329 92.6865 45.5747 92.7672 45.6583C92.8479 45.73 92.8883 45.8077 92.8883 45.8913C92.8883 45.9391 92.6001 46.4707 92.0236 47.4863C91.4472 48.4899 90.5768 49.9893 89.4124 51.9845C88.9743 52.7372 88.4958 53.5675 87.977 54.4755C87.4698 55.3835 86.9279 56.3692 86.3515 57.4325C89.6948 56.5006 92.2657 56.0347 94.0642 56.0347C94.606 56.0347 95.0557 56.1302 95.4131 56.3214C95.782 56.5006 95.9664 56.6798 95.9664 56.859C95.9664 57.0621 95.8684 57.1637 95.6725 57.1637C95.5111 57.1637 95.4304 57.0741 95.4304 56.8949V56.8411C95.3151 56.7814 95.1191 56.7336 94.8424 56.6977C94.5657 56.6619 94.2487 56.644 93.8913 56.644C93.4532 56.644 92.9574 56.6858 92.4041 56.7694C91.8507 56.8411 91.2858 56.9367 90.7093 57.0562C90.1444 57.1637 89.6141 57.2772 89.1184 57.3967C88.6342 57.5042 88.173 57.6177 87.7349 57.7372C87.3084 57.8686 86.9106 57.9821 86.5417 58.0777C86.3227 58.1255 86.1612 58.1673 86.0575 58.2031C85.9653 58.239 85.9076 58.2569 85.8846 58.2569Z" fill="white"/>
<path d="M103.802 58.0956C103.237 58.0956 102.955 57.6715 102.955 56.8232C102.955 56.3692 103.059 55.8196 103.266 55.1744C101.871 56.859 100.776 57.7013 99.9805 57.7013C99.3233 57.7013 98.9948 57.2891 98.9948 56.4648C98.9948 56.1541 99.0409 55.7838 99.1331 55.3537C99.2369 54.9116 99.3694 54.4576 99.5309 53.9916C99.7038 53.5257 99.8882 53.0896 100.084 52.6834C100.28 52.2772 100.476 51.9486 100.672 51.6977C100.741 51.6141 100.828 51.5723 100.932 51.5723C100.989 51.5723 101.047 51.5962 101.105 51.644C101.162 51.6798 101.191 51.7396 101.191 51.8232C101.191 51.8949 101.151 51.9964 101.07 52.1278C100.551 53.012 100.182 53.7826 99.9632 54.4397C99.6865 55.1924 99.5481 55.8435 99.5481 56.3931C99.5481 56.9068 99.675 57.1637 99.9286 57.1637C100.09 57.1637 100.303 57.0801 100.568 56.9128C100.834 56.7455 101.105 56.5424 101.381 56.3035C101.669 56.0526 101.917 55.8196 102.125 55.6045C102.701 54.9713 103.22 54.2963 103.681 53.5795C103.889 53.2449 104.073 52.9223 104.235 52.6117C104.408 52.2891 104.563 51.9546 104.701 51.6081C104.759 51.4767 104.805 51.3811 104.84 51.3214C104.886 51.2497 104.949 51.2139 105.03 51.2139C105.272 51.2139 105.393 51.3094 105.393 51.5006C105.393 51.6201 105.353 51.7037 105.272 51.7515C104.096 54.2246 103.508 55.9271 103.508 56.859C103.508 57.1099 103.531 57.2891 103.577 57.3967C103.624 57.4922 103.704 57.54 103.82 57.54C103.981 57.54 104.229 57.4325 104.563 57.2175C104.909 57.0024 105.313 56.6738 105.774 56.2318L107.589 54.5114C107.682 54.4158 107.768 54.368 107.849 54.368C108.033 54.368 108.126 54.4576 108.126 54.6368C108.126 54.7921 107.762 55.2103 107.036 55.8913C106.725 56.19 106.448 56.4409 106.206 56.644C105.964 56.8471 105.739 57.0263 105.532 57.1816C105.14 57.4683 104.794 57.6894 104.494 57.8447C104.194 58.012 103.964 58.0956 103.802 58.0956Z" fill="white"/>
<path d="M107.741 57.9343C107.545 57.9343 107.447 57.8387 107.447 57.6476C107.447 57.552 107.585 57.3489 107.862 57.0382C108.15 56.7157 108.588 56.2975 109.176 55.7838L111.251 53.9558C111.171 53.6332 111.096 53.3465 111.026 53.0956C110.969 52.8447 110.911 52.6356 110.854 52.4683C110.634 51.7754 110.438 51.3393 110.266 51.1601C110.196 51.0884 110.162 51.0108 110.162 50.9271C110.162 50.7479 110.248 50.6583 110.421 50.6583C110.686 50.6583 110.963 51.0765 111.251 51.9128C111.343 52.1876 111.43 52.4624 111.511 52.7372C111.591 53.012 111.672 53.2867 111.753 53.5615C113.009 52.4863 113.828 51.7455 114.208 51.3393C114.301 51.2437 114.364 51.1721 114.399 51.1243C114.433 51.0765 114.456 51.0347 114.468 50.9988C114.525 50.8674 114.623 50.8017 114.762 50.8017C114.946 50.8017 115.038 50.8913 115.038 51.0705C115.038 51.4289 114.001 52.4504 111.926 54.135C112.064 54.6368 112.208 55.1087 112.358 55.5508C112.508 55.9928 112.681 56.3572 112.877 56.644C113.084 56.9188 113.315 57.0562 113.569 57.0562C113.811 57.0562 114.064 56.9904 114.329 56.859C114.606 56.7276 114.883 56.5663 115.159 56.3752C115.436 56.1721 115.684 55.9809 115.903 55.8017C116.318 55.4672 116.629 55.1983 116.837 54.9952C117.044 54.7921 117.269 54.5771 117.511 54.3501C117.581 54.3023 117.644 54.2784 117.702 54.2784C117.759 54.2784 117.817 54.2963 117.875 54.3321C117.932 54.368 117.961 54.4218 117.961 54.4934C117.961 54.6249 117.846 54.81 117.615 55.049C117.419 55.2402 117.212 55.4433 116.993 55.6583C116.774 55.8614 116.428 56.1482 115.955 56.5185C115.747 56.6858 115.5 56.8531 115.211 57.0203C114.935 57.1876 114.652 57.325 114.364 57.4325C114.087 57.54 113.834 57.5938 113.603 57.5938C113.211 57.5938 112.877 57.4504 112.6 57.1637C112.335 56.865 112.11 56.4827 111.926 56.0167C111.741 55.5508 111.574 55.0609 111.424 54.5472L109.643 56.1243C109.286 56.4349 108.969 56.7336 108.692 57.0203C108.415 57.3071 108.173 57.5759 107.966 57.8268C107.919 57.8985 107.845 57.9343 107.741 57.9343Z" fill="white"/>
<path d="M123.473 58.0956C122.908 58.0956 122.626 57.6715 122.626 56.8232C122.626 56.3692 122.73 55.8196 122.937 55.1744C121.542 56.859 120.447 57.7013 119.651 57.7013C118.994 57.7013 118.666 57.2891 118.666 56.4648C118.666 56.1541 118.712 55.7838 118.804 55.3537C118.908 54.9116 119.04 54.4576 119.202 53.9916C119.375 53.5257 119.559 53.0896 119.755 52.6834C119.951 52.2772 120.147 51.9486 120.343 51.6977C120.412 51.6141 120.499 51.5723 120.602 51.5723C120.66 51.5723 120.718 51.5962 120.775 51.644C120.833 51.6798 120.862 51.7396 120.862 51.8232C120.862 51.8949 120.822 51.9964 120.741 52.1278C120.222 53.012 119.853 53.7826 119.634 54.4397C119.357 55.1924 119.219 55.8435 119.219 56.3931C119.219 56.9068 119.346 57.1637 119.599 57.1637C119.761 57.1637 119.974 57.0801 120.239 56.9128C120.505 56.7455 120.775 56.5424 121.052 56.3035C121.34 56.0526 121.588 55.8196 121.796 55.6045C122.372 54.9713 122.891 54.2963 123.352 53.5795C123.56 53.2449 123.744 52.9223 123.905 52.6117C124.078 52.2891 124.234 51.9546 124.372 51.6081C124.43 51.4767 124.476 51.3811 124.511 51.3214C124.557 51.2497 124.62 51.2139 124.701 51.2139C124.943 51.2139 125.064 51.3094 125.064 51.5006C125.064 51.6201 125.024 51.7037 124.943 51.7515C123.767 54.2246 123.179 55.9271 123.179 56.859C123.179 57.1099 123.202 57.2891 123.248 57.3967C123.294 57.4922 123.375 57.54 123.49 57.54C123.652 57.54 123.9 57.4325 124.234 57.2175C124.58 57.0024 124.983 56.6738 125.445 56.2318L127.26 54.5114C127.353 54.4158 127.439 54.368 127.52 54.368C127.704 54.368 127.796 54.4576 127.796 54.6368C127.796 54.7921 127.433 55.2103 126.707 55.8913C126.396 56.19 126.119 56.4409 125.877 56.644C125.635 56.8471 125.41 57.0263 125.202 57.1816C124.81 57.4683 124.465 57.6894 124.165 57.8447C123.865 58.012 123.635 58.0956 123.473 58.0956Z" fill="white"/>
<path d="M127.879 57.9343C127.694 57.9343 127.602 57.8566 127.602 57.7013C127.602 57.6296 127.619 57.558 127.654 57.4863C127.7 57.4146 127.734 57.3548 127.757 57.3071L129.331 54.0096C130 52.5998 130.334 51.8172 130.334 51.6619C130.334 51.4946 130.415 51.411 130.576 51.411C130.795 51.411 130.905 51.5245 130.905 51.7515C130.905 51.871 130.853 52.0621 130.749 52.325C130.645 52.5878 130.513 52.8925 130.351 53.239C130.075 53.8602 129.844 54.3381 129.66 54.6726C130.006 54.2545 130.357 53.8602 130.715 53.4899C131.072 53.1195 131.435 52.767 131.804 52.4325C132.899 51.4409 133.741 50.945 134.329 50.945C134.732 50.945 134.934 51.1422 134.934 51.5364C134.934 51.9188 134.813 52.1099 134.571 52.1099C134.456 52.1099 134.369 52.0084 134.312 51.8053C134.277 51.6619 134.196 51.5902 134.069 51.5902C133.873 51.5902 133.493 51.8112 132.928 52.2533C132.306 52.7312 131.677 53.2987 131.043 53.9558C130.421 54.6129 129.758 55.4492 129.054 56.4648L128.19 57.7192C128.144 57.779 128.098 57.8268 128.051 57.8626C128.017 57.9104 127.959 57.9343 127.879 57.9343Z" fill="white"/>
<path d="M135.527 63.4182C134.824 63.4182 134.472 62.9881 134.472 62.1278C134.472 61.3991 134.622 60.6942 134.922 60.0132C134.968 59.8937 135.043 59.8339 135.147 59.8339C135.354 59.8339 135.458 59.9295 135.458 60.1207C135.458 60.1685 135.441 60.2282 135.406 60.2999C135.383 60.3835 135.354 60.4731 135.32 60.5687C135.239 60.7957 135.175 61.0347 135.129 61.2856C135.083 61.5364 135.06 61.7993 135.06 62.0741C135.06 62.3847 135.101 62.5938 135.181 62.7013C135.262 62.8088 135.366 62.8626 135.493 62.8626C135.792 62.8626 136.144 62.7192 136.547 62.4325C136.962 62.1458 137.389 61.6918 137.827 61.0705C138.138 60.6284 138.461 60.1028 138.796 59.4934C139.13 58.8841 139.487 58.1852 139.868 57.3967C140.375 56.3572 140.842 55.2999 141.268 54.2246C140.98 54.6069 140.68 54.9773 140.369 55.3357C140.058 55.6942 139.724 56.0287 139.366 56.3393C138.409 57.1876 137.614 57.6117 136.98 57.6117C136.219 57.6117 135.838 57.1577 135.838 56.2497C135.838 55.9271 135.896 55.5388 136.011 55.0848C136.138 54.6308 136.311 54.1111 136.53 53.5257C136.565 53.4301 136.582 53.3525 136.582 53.2927C136.582 53.221 136.599 53.1494 136.634 53.0777C136.818 52.6595 137.124 52.1936 137.55 51.6798C137.643 51.5723 137.723 51.5185 137.793 51.5185C137.965 51.5185 138.052 51.6499 138.052 51.9128C136.934 53.6213 136.374 55.0669 136.374 56.2497C136.374 56.7515 136.565 57.0024 136.945 57.0024C137.372 57.0024 137.965 56.6977 138.726 56.0884C139.268 55.6583 139.77 55.1744 140.231 54.6368C140.692 54.0872 141.107 53.5197 141.476 52.9343C141.73 52.54 141.931 52.1936 142.081 51.8949C142.243 51.5842 142.341 51.3752 142.375 51.2676C142.433 51.0884 142.514 50.9988 142.617 50.9988C142.836 50.9988 142.946 51.0944 142.946 51.2856C142.946 51.3811 142.9 51.5544 142.808 51.8053C142.727 52.0442 142.623 52.331 142.496 52.6655C142.312 53.1553 142.047 53.8124 141.701 54.6368C141.355 55.4612 140.923 56.4409 140.404 57.5759C139.758 58.9857 139.124 60.1386 138.502 61.0347C138.04 61.7157 137.533 62.2832 136.98 62.7372C136.438 63.1912 135.954 63.4182 135.527 63.4182Z" fill="white"/>
<path d="M151.335 59.2425C151.116 59.2425 151.006 59.141 151.006 58.9379C151.006 57.5281 151.802 55.3298 153.393 52.3429C153.508 52.1278 153.687 51.8112 153.929 51.3931C153.537 51.4409 153.208 51.5305 152.943 51.6619C152.689 51.7814 152.522 51.8411 152.442 51.8411C152.234 51.8411 152.13 51.7396 152.13 51.5364C152.13 51.2258 152.845 50.957 154.275 50.73C154.471 50.3835 154.718 49.9534 155.018 49.4397C155.329 48.9259 155.698 48.3226 156.125 47.6296C156.436 47.1159 156.701 46.6679 156.92 46.2856C157.139 45.8913 157.318 45.5329 157.457 45.2103C157.503 45.0908 157.578 45.0311 157.681 45.0311C157.9 45.0311 158.01 45.1505 158.01 45.3895C158.01 45.4731 157.872 45.7539 157.595 46.2318C157.33 46.6977 156.909 47.4146 156.332 48.3823L154.966 50.6583C155.404 50.6105 155.866 50.5747 156.35 50.5508C156.834 50.5269 157.33 50.5149 157.837 50.5149C158.852 50.5149 160.713 50.6045 163.423 50.7838C163.653 50.27 163.895 49.7682 164.149 49.2784C164.414 48.7766 164.691 48.2808 164.979 47.7909C165.394 47.0621 165.757 46.4946 166.068 46.0884C166.38 45.6703 166.61 45.4014 166.76 45.282C166.91 45.1625 167.031 45.1028 167.123 45.1028C167.296 45.1028 167.383 45.1983 167.383 45.3895C167.383 45.4851 167.331 45.5687 167.227 45.6404C167.02 45.7957 166.766 46.0765 166.466 46.4827C166.166 46.8889 165.832 47.4206 165.463 48.0777C164.91 49.0454 164.437 49.9654 164.045 50.8375C164.449 50.8375 164.65 50.9391 164.65 51.1422C164.65 51.2258 164.622 51.2975 164.564 51.3572C164.506 51.417 164.42 51.4409 164.305 51.4289L163.786 51.3931C162.621 54.0813 162.039 55.9212 162.039 56.9128V57.3071C162.039 57.4504 161.941 57.5221 161.745 57.5221C161.561 57.5221 161.469 57.313 161.469 56.8949C161.469 55.8435 162.033 53.9916 163.163 51.3393C161.757 51.2557 160.598 51.1959 159.687 51.1601C158.788 51.1243 158.137 51.1063 157.733 51.1063C156.603 51.1063 155.572 51.1601 154.638 51.2676L153.894 52.6117C153.329 53.6511 152.885 54.583 152.563 55.4074C152.24 56.2198 152.021 56.8292 151.905 57.2354C151.79 57.7013 151.715 58.0597 151.681 58.3106C151.646 58.5615 151.617 58.7945 151.594 59.0096C151.583 59.1649 151.496 59.2425 151.335 59.2425Z" fill="white"/>
<path d="M169.125 57.3967C168.191 57.3967 167.724 56.8531 167.724 55.7658C167.724 55.264 167.84 54.7384 168.07 54.1888C168.301 53.6392 168.606 53.1314 168.987 52.6655C169.367 52.1876 169.788 51.7993 170.249 51.5006C170.722 51.2019 171.2 51.0526 171.684 51.0526C172.111 51.0526 172.422 51.2198 172.618 51.5544C172.814 51.8889 172.912 52.2593 172.912 52.6655C172.912 53.2031 172.808 53.7527 172.601 54.3142C172.393 54.8638 172.111 55.3716 171.754 55.8375C171.396 56.3035 170.993 56.6798 170.543 56.9666C170.093 57.2533 169.621 57.3967 169.125 57.3967ZM169.108 56.8232C169.177 56.8232 169.217 56.8172 169.229 56.8053C169.678 56.7455 170.093 56.5783 170.474 56.3035C170.854 56.0287 171.183 55.6882 171.46 55.282C171.748 54.8638 171.967 54.4158 172.117 53.9379C172.267 53.46 172.342 52.9881 172.342 52.5221C172.342 52.2473 172.267 52.0323 172.117 51.8769C171.967 51.7216 171.777 51.644 171.546 51.644C171.212 51.644 170.854 51.7873 170.474 52.0741C170.105 52.3608 169.753 52.7252 169.419 53.1673C169.096 53.6093 168.831 54.0753 168.624 54.5651C168.416 55.043 168.312 55.4731 168.312 55.8554C168.312 56.5006 168.577 56.8232 169.108 56.8232Z" fill="white"/>
<path d="M175.23 58.7228C175.011 58.7228 174.901 58.5436 174.901 58.1852C174.901 57.6595 175.184 56.7396 175.748 55.4253C176.325 54.1111 177.178 52.3907 178.308 50.264C177.87 50.264 177.455 50.3238 177.063 50.4433C176.682 50.5508 176.48 50.6882 176.457 50.8554C176.446 50.9032 176.417 50.951 176.371 50.9988C176.336 51.0347 176.279 51.0526 176.198 51.0526C176.014 51.0526 175.921 50.957 175.921 50.7658C175.921 50.4552 176.158 50.1983 176.63 49.9952C177.103 49.7921 177.766 49.6906 178.619 49.6906L179.812 47.6476C179.893 47.5161 179.979 47.3728 180.072 47.2175C180.164 47.0502 180.268 46.871 180.383 46.6798C180.498 46.5126 180.631 46.4289 180.781 46.4289C180.873 46.4289 180.942 46.4588 180.988 46.5185C181.034 46.5663 181.057 46.6201 181.057 46.6798C181.057 46.859 180.804 47.3369 180.297 48.1135C179.662 49.0813 179.322 49.6069 179.276 49.6906C179.449 49.6906 179.709 49.7085 180.054 49.7443C180.4 49.7682 180.81 49.81 181.282 49.8698C181.455 49.8817 181.542 49.9713 181.542 50.1386C181.542 50.3298 181.438 50.4253 181.23 50.4253C181.15 50.4253 180.988 50.4134 180.746 50.3895C180.504 50.3537 180.245 50.3238 179.968 50.2999C179.691 50.276 179.455 50.27 179.259 50.282L179 50.2999C176.659 54.5651 175.495 57.2175 175.506 58.2569L175.524 58.4002V58.4361C175.524 58.6272 175.426 58.7228 175.23 58.7228Z" fill="white"/>
<path d="M182.623 57.8088C182.139 57.8088 181.758 57.6356 181.481 57.2891C181.205 56.9427 181.066 56.5185 181.066 56.0167C181.066 55.1565 181.343 54.2724 181.896 53.3644C182.046 53.1135 182.219 52.8686 182.415 52.6296C182.611 52.3787 182.824 52.1398 183.055 51.9128C183.401 51.5663 183.764 51.2796 184.145 51.0526C184.525 50.8256 184.894 50.7121 185.251 50.7121C185.839 50.7121 186.133 50.9988 186.133 51.5723C186.133 52.2891 185.73 52.9403 184.923 53.5257C184.173 54.0514 183.436 54.3142 182.709 54.3142C182.582 54.3142 182.467 54.3083 182.363 54.2963C182.271 54.2724 182.185 54.2485 182.104 54.2246C181.989 54.4516 181.885 54.7443 181.793 55.1028C181.7 55.4612 181.654 55.7718 181.654 56.0347C181.654 56.8232 181.989 57.2175 182.657 57.2175C183.199 57.2175 183.712 57.1219 184.196 56.9307C184.681 56.7276 185.257 56.3513 185.926 55.8017C186.341 55.4672 186.652 55.1983 186.86 54.9952C187.067 54.7921 187.292 54.5771 187.534 54.3501C187.603 54.3023 187.667 54.2784 187.724 54.2784C187.782 54.2784 187.839 54.2963 187.897 54.3321C187.955 54.368 187.984 54.4218 187.984 54.4934C187.984 54.6249 187.868 54.81 187.638 55.049C187.442 55.2402 187.234 55.4433 187.015 55.6583C186.796 55.8614 186.45 56.1482 185.978 56.5185C185.47 56.9247 184.917 57.2413 184.317 57.4683C183.718 57.6953 183.153 57.8088 182.623 57.8088ZM182.605 53.7407C182.974 53.7407 183.326 53.681 183.66 53.5615C183.995 53.4421 184.312 53.2688 184.611 53.0418C185.28 52.5281 185.614 52.0442 185.614 51.5902C185.614 51.3871 185.493 51.2856 185.251 51.2856C184.79 51.2856 184.254 51.5783 183.643 52.1637C183.343 52.4504 183.095 52.7133 182.899 52.9522C182.715 53.1792 182.542 53.4301 182.381 53.7049C182.45 53.7288 182.525 53.7407 182.605 53.7407Z" fill="white"/>
<path d="M190.587 57.9701C190.057 57.9701 189.648 57.8029 189.359 57.4683C189.083 57.1219 188.944 56.6679 188.944 56.1063C188.944 55.7001 189.014 55.2103 189.152 54.6368C189.394 53.6691 189.803 52.546 190.38 51.2676C190.829 50.2999 191.314 49.3501 191.832 48.4182C192.351 47.4743 192.922 46.5484 193.544 45.6404C194.536 44.1828 195.228 43.454 195.62 43.454C195.873 43.454 196 43.5257 196 43.6691C196 43.8722 195.677 44.3799 195.032 45.1924L193.821 46.7157C192.772 48.0299 191.913 49.374 191.244 50.7479C190.587 52.1219 190.074 53.4958 189.705 54.8698C189.602 55.264 189.55 55.6344 189.55 55.9809C189.55 56.8889 189.907 57.3429 190.622 57.3429C190.875 57.3429 191.135 57.2652 191.4 57.1099C191.665 56.9666 191.809 56.8949 191.832 56.8949C191.971 56.8949 192.04 56.9964 192.04 57.1995C192.04 57.3787 191.976 57.5161 191.85 57.6117C191.458 57.8507 191.037 57.9701 190.587 57.9701Z" fill="white"/>
</svg>
